<svg width="30" height="19" viewBox="0 0 30 19" fill="none" xmlns="http://www.w3.org/2000/svg">
<path d="M25.5 0H4.5C3.30653 0 2.16193 0.375334 1.31802 1.04343C0.474106 1.71153 0 2.61767 0 3.5625V15.4375C0 16.3823 0.474106 17.2885 1.31802 17.9566C2.16193 18.6247 3.30653 19 4.5 19H25.5C26.6935 19 27.8381 18.6247 28.682 17.9566C29.5259 17.2885 30 16.3823 30 15.4375V3.5625C30 2.61767 29.5259 1.71153 28.682 1.04343C27.8381 0.375334 26.6935 0 25.5 0ZM25.5 2.375L15.75 7.68313C15.522 7.78735 15.2633 7.84222 15 7.84222C14.7367 7.84222 14.478 7.78735 14.25 7.68313L4.5 2.375H25.5Z" fill="#414141"/>
</svg>
