<svg width="30" height="30" viewBox="0 0 30 30" fill="none" xmlns="http://www.w3.org/2000/svg">
<path d="M19.4999 15C19.4999 16.1934 19.0257 17.338 18.1818 18.182C17.3379 19.0259 16.1933 19.5 14.9999 19.5C13.8064 19.5 12.6618 19.0259 11.8179 18.182C10.974 17.338 10.4999 16.1934 10.4999 15C10.4999 14.7435 10.5269 14.493 10.5734 14.25H8.99985V20.2455C8.99985 20.6625 9.33735 21 9.75435 21H20.2469C20.4467 20.9996 20.6382 20.9199 20.7794 20.7785C20.9206 20.637 20.9999 20.4453 20.9999 20.2455V14.25H19.4264C19.4729 14.493 19.4999 14.7435 19.4999 15ZM14.9999 18C15.3939 17.9999 15.7841 17.9222 16.1481 17.7713C16.5122 17.6204 16.8429 17.3993 17.1215 17.1205C17.4001 16.8418 17.621 16.511 17.7717 16.1469C17.9224 15.7828 18 15.3925 17.9999 14.9985C17.9998 14.6044 17.922 14.2142 17.7711 13.8502C17.6203 13.4862 17.3991 13.1554 17.1204 12.8768C16.8417 12.5983 16.5109 12.3773 16.1467 12.2266C15.7826 12.0759 15.3924 11.9984 14.9984 11.9985C14.2025 11.9987 13.4393 12.315 12.8767 12.8779C12.3141 13.4408 11.9982 14.2041 11.9984 15C11.9986 15.7958 12.3149 16.559 12.8778 17.1216C13.4407 17.6842 14.204 18.0002 14.9999 18ZM18.5999 11.85H20.3984C20.5178 11.85 20.6325 11.8026 20.7171 11.7183C20.8017 11.6339 20.8495 11.5195 20.8499 11.4V9.60148C20.8499 9.48173 20.8023 9.36689 20.7176 9.28222C20.6329 9.19754 20.5181 9.14997 20.3984 9.14997H18.5999C18.4801 9.14997 18.3653 9.19754 18.2806 9.28222C18.1959 9.36689 18.1484 9.48173 18.1484 9.60148V11.4C18.1499 11.6475 18.3524 11.85 18.5999 11.85ZM14.9999 0.599976C11.1807 0.599976 7.51804 2.11711 4.81752 4.81764C2.11699 7.51816 0.599854 11.1809 0.599854 15C0.599854 18.8191 2.11699 22.4818 4.81752 25.1823C7.51804 27.8828 11.1807 29.4 14.9999 29.4C16.8909 29.4 18.7634 29.0275 20.5105 28.3038C22.2576 27.5802 23.845 26.5195 25.1822 25.1823C26.5194 23.8451 27.5801 22.2577 28.3037 20.5106C29.0274 18.7635 29.3999 16.891 29.3999 15C29.3999 13.1089 29.0274 11.2364 28.3037 9.48933C27.5801 7.74225 26.5194 6.1548 25.1822 4.81764C23.845 3.48047 22.2576 2.41978 20.5105 1.69611C18.7634 0.972443 16.8909 0.599976 14.9999 0.599976ZM22.4999 20.8335C22.4999 21.75 21.7499 22.5 20.8334 22.5H9.16635C8.24985 22.5 7.49985 21.75 7.49985 20.8335V9.16648C7.49985 8.24998 8.24985 7.49998 9.16635 7.49998H20.8334C21.7499 7.49998 22.4999 8.24998 22.4999 9.16648V20.8335Z" fill="#414141"/>
</svg>
