<svg width="30" height="30" viewBox="0 0 30 30" fill="none" xmlns="http://www.w3.org/2000/svg">
<path d="M27.7564 6.93732C23.2688 -0.000229331 14.1065 -2.06274 7.00111 2.24979C0.0826717 6.56232 -2.16114 15.9374 2.32649 22.8749L2.70046 23.4375L1.20458 29.0625L6.81412 27.5625L7.37508 27.9375C9.80588 29.25 12.4237 30 15.0415 30C17.8462 30 20.651 29.25 23.0818 27.75C30.0002 23.2499 32.0571 14.0624 27.7564 6.93732ZM23.8297 21.3749C23.0818 22.4999 22.1469 23.2499 20.838 23.4375C20.09 23.4375 19.1551 23.8125 15.4154 22.3124C12.2367 20.8124 9.61889 18.3749 7.74905 15.5624C6.62714 14.2499 6.06618 12.5624 5.8792 10.8749C5.8792 9.37484 6.44015 8.06233 7.37508 7.12483C7.74905 6.74982 8.12302 6.56232 8.49699 6.56232H9.43191C9.80588 6.56232 10.1798 6.56232 10.3668 7.31233C10.7408 8.24983 11.6757 10.4999 11.6757 10.6874C11.8627 10.8749 11.8627 11.2499 11.6757 11.4374C11.8627 11.8124 11.6757 12.1874 11.4887 12.3749C11.3018 12.5624 11.1148 12.9374 10.9278 13.1249C10.5538 13.3124 10.3668 13.6874 10.5538 14.0624C11.3018 15.1874 12.2367 16.3124 13.1716 17.2499C14.2935 18.1874 15.4154 18.9374 16.7243 19.4999C17.0983 19.6874 17.4723 19.6874 17.6592 19.3124C17.8462 18.9374 18.7811 17.9999 19.1551 17.6249C19.5291 17.2499 19.7161 17.2499 20.09 17.4374L23.0818 18.9374C23.4558 19.1249 23.8297 19.3124 24.0167 19.4999C24.2037 20.0624 24.2037 20.8124 23.8297 21.3749Z" fill="#414141"/>
</svg>
